<svg enable-background="new 0 0 26 23" viewBox="0 0 26 23" xmlns="http://www.w3.org/2000/svg" xmlns:xlink="http://www.w3.org/1999/xlink"><mask id="a" maskUnits="userSpaceOnUse"><path clip-rule="evenodd" d="m26 23.0000019h-26v-23.0000009h26z" fill="#fff" fill-rule="evenodd"/></mask><path clip-rule="evenodd" d="m.2696457 12.1476736c.0259457.025815.0450932.043314.0710389.069129.0222397.025815.0364498.037818.0623954.063633l10.5041513 10.4512768c.3595276.3577175.9414444.3577175 1.3046789 0 .3595285-.3614063.3595285-.9403934 0-1.2981129l-9.0660381-9.016715h22.1906681c.3669415-.0000001.6634598-.2987128.6634598-.6674949v-.368782c0-.3687811-.2965183-.6674948-.6634598-.6674948h-22.3241024l9.1994724-9.149477c.3595285-.3577175.3595285-.9403934 0-1.2981129-.1816168-.1807022-.4188309-.265522-.652339-.265522-.240921 0-.4744291.0848198-.6523399.265522l-10.6375856 10.5840388c-.3595276.3577185-.3595276.9403944 0 1.2981119" fill="#577bdf" fill-rule="evenodd" mask="url(#a)" transform="matrix(-1 0 0 1 26 0)"/></svg>