<svg enable-background="new 0 0 26 23" viewBox="0 0 26 23" xmlns="http://www.w3.org/2000/svg" xmlns:xlink="http://www.w3.org/1999/xlink"><mask id="a" maskUnits="userSpaceOnUse"><path clip-rule="evenodd" d="m0-.000001h26v22.9999991h-26z" fill="#fff" fill-rule="evenodd"/></mask><path clip-rule="evenodd" d="m25.7303543 10.8523264c-.0259457-.025815-.0450935-.043314-.0710392-.069129-.0222397-.025815-.0364494-.037818-.0623951-.063633l-10.5041513-10.4512767c-.3595276-.3577183-.9414444-.3577183-1.3046789 0-.3595285.3614062-.3595285.9403937 0 1.298112l9.0660381 9.016716h-22.1906687c-.3669411-.0000001-.6634592.2987126-.6634592.6674947v.368782c0 .3687811.2965181.6674948.6634591.6674948h22.3241024l-9.1994724 9.1494761c-.3595285.3577175-.3595285.9403934 0 1.2981129.1816168.1807022.4188309.265522.652339.265522.240921 0 .4744291-.0848198.6523399-.265522l10.6375856-10.5840378c.3595283-.3577186.3595283-.9403945.0000007-1.298112" fill="#577bdf" fill-rule="evenodd" mask="url(#a)" transform="matrix(-1 0 0 1 26 0)"/></svg>