<svg xmlns="http://www.w3.org/2000/svg" width="19" height="16" viewBox="0 0 19 16">
    <g fill="none" fill-rule="evenodd">
        <g fill="red">
            <g>
                <path d="M16.814 7.89L9.514 15 2.211 7.89c-1.616-1.58-1.616-4.125 0-5.705.778-.76 1.825-1.17 2.902-1.17 1.078 0 2.125.41 2.903 1.17l1.257 1.229c.12.117.299.117.419 0l1.256-1.229c1.616-1.58 4.22-1.58 5.835 0 1.616 1.58 1.616 4.125.03 5.705m.763-6.45C16.64.522 15.425.03 14.083.03c-1.341 0-2.557.491-3.493 1.41L9.53 2.484 8.437 1.41C7.502.49 6.285 0 4.944 0 3.603 0 2.386.49 1.45 1.41c-1.933 1.9-1.933 4.965 0 6.835l7.83 7.663c.062.061.124.092.218.092s.156-.03.218-.092l7.83-7.663c1.934-1.87 1.934-4.935.03-6.804" transform="translate(-755.000000, -2008.000000) translate(755.000000, 2008.000000)"/>
            </g>
        </g>
    </g>
</svg>
