<svg viewBox="0 0 26 23" xmlns="http://www.w3.org/2000/svg" xmlns:xlink="http://www.w3.org/1999/xlink"><mask id="a" height="23" maskUnits="userSpaceOnUse" width="26" x="0" y="0"><path d="m26 0h-26v23h26z" fill="#fff" fill-rule="evenodd"/></mask><g mask="url(#a)"><path d="m.26965 10.85233c.02594-.02582.04509-.04332.071-.06913.02224-.02582.03645-.03782.0624-.06364l10.50418-10.45127a.92722.92722 0 0 1 1.30468 0 .916.916 0 0 1 0 1.29811l-9.066 9.01672h22.19063a.66506.66506 0 0 1 .66346.66749v.36878a.66507.66507 0 0 1 -.66346.6675h-22.3241l9.19947 9.14947a.91461.91461 0 0 1 -.65234 1.56364.9009.9009 0 0 1 -.65234-.26552l-10.63758-10.58404a.916.916 0 0 1 0-1.29811" fill="#dadada" fill-rule="evenodd"/></g><path d="m0 0h26v23h-26z" fill="none"/></svg>