<svg xmlns="http://www.w3.org/2000/svg" xmlns:xlink="http://www.w3.org/1999/xlink" width="30" height="30" viewBox="0 0 30 30">
    <defs>
        <path id="16v3w1ffra" d="M0 0L25.858 0 25.858 15.645 0 15.645z"/>
    </defs>
    <g fill="none" fill-rule="evenodd">
        <g>
            <g>
                <path d="M0 0H30V30H0z" transform="translate(-1360.000000, -1414.000000) translate(1360.000000, 1414.000000)"/>
                <g>
                    <path fill="#F39100" d="M11.203 20.795c0 .726-.59 1.317-1.317 1.317-.726 0-1.316-.59-1.316-1.317 0-.725.59-1.316 1.316-1.316.726 0 1.317.59 1.317 1.316m-3.703 0c0 1.316 1.07 2.387 2.386 2.387s2.387-1.07 2.387-2.387c0-1.315-1.07-2.386-2.387-2.386-1.315 0-2.386 1.07-2.386 2.386M20.067 20.795c0 .726-.591 1.317-1.317 1.317s-1.316-.59-1.316-1.317c0-.725.59-1.316 1.316-1.316.726 0 1.317.59 1.317 1.316m-3.703 0c0 1.316 1.07 2.387 2.386 2.387s2.386-1.07 2.386-2.387c0-1.315-1.07-2.386-2.386-2.386s-2.386 1.07-2.386 2.386" transform="translate(-1360.000000, -1414.000000) translate(1360.000000, 1414.000000) translate(2.045455, 3.409091)"/>
                    <g transform="translate(-1360.000000, -1414.000000) translate(1360.000000, 1414.000000) translate(2.045455, 3.409091)">
                        <mask id="2kdx98wfrb" fill="#fff">
                            <use xlink:href="#16v3w1ffra"/>
                        </mask>
                        <path fill="#F39100" d="M20.597 14.386H9.088c-.868 0-1.618-.593-1.824-1.443l-1.606-6.64h18.735l-1.997 6.734c-.236.794-.976 1.349-1.8 1.349m3-.99l2.236-7.543c.057-.19.02-.397-.098-.556-.118-.16-.304-.254-.501-.254H5.353L4.716 2.41C4.376 1.003 3.133.015 1.694.006L.63 0H.626C.282 0 .002.28 0 .626c-.002.348.277.632.622.634l1.065.006c.864.005 1.61.598 1.813 1.442l2.548 10.533c.342 1.416 1.593 2.404 3.04 2.404h11.509c1.373 0 2.606-.924 2.998-2.248" mask="url(#2kdx98wfrb)"/>
                    </g>
                    <path fill="#F39100" d="M14.318 7.5H15.682V12.955H14.318z" transform="translate(-1360.000000, -1414.000000) translate(1360.000000, 1414.000000) translate(2.045455, 3.409091)"/>
                    <path fill="#F39100" d="M14.318 7.5H15.682V12.955H14.318z" transform="translate(-1360.000000, -1414.000000) translate(1360.000000, 1414.000000) translate(2.045455, 3.409091) translate(15.000000, 10.227273) rotate(90.000000) translate(-15.000000, -10.227273)"/>
                </g>
            </g>
        </g>
    </g>
</svg>
