<svg xmlns="http://www.w3.org/2000/svg" width="44" height="44" viewBox="0 0 44 44">
    <g fill="none" fill-rule="evenodd">
        <g>
            <g>
                <path d="M0 0H44V44H0z" transform="translate(-1346.000000, -40.000000) translate(1346.000000, 40.000000)"/>
                <path fill="#000" fill-rule="nonzero" d="M15.963 28.794c.2.2.401.225.602.075l.086-.075 5.194-5.194c.074-.074.147-.089.22-.045l.055.045 5.229 5.228c.2.2.401.226.602.075l.086-.075.791-.791c.2-.2.226-.401.075-.602l-.075-.086L23.6 22.12c-.074-.073-.089-.146-.045-.22l.045-.055 5.228-5.228c.2-.2.226-.402.075-.602l-.075-.086-.757-.757c-.2-.2-.401-.226-.602-.075l-.086.075-5.228 5.228c-.074.074-.147.089-.22.045l-.055-.045-5.229-5.228c-.2-.2-.401-.226-.602-.075l-.086.075-.791.791c-.2.2-.226.401-.075.602l.075.086L20.4 21.88c.074.073.089.146.045.22l-.045.055-5.194 5.194c-.2.2-.225.401-.075.602l.075.086.757.757z" transform="translate(-1346.000000, -40.000000) translate(1346.000000, 40.000000)"/>
            </g>
        </g>
    </g>
</svg>
