<svg xmlns="http://www.w3.org/2000/svg" xmlns:xlink="http://www.w3.org/1999/xlink" width="31" height="28" viewBox="0 0 31 28">
    <defs>
        <path id="ja7tc10d0a" d="M0 0L30.939 0 30.939 18.956 0 18.956z"/>
    </defs>
    <g fill="none" fill-rule="evenodd">
        <g>
            <g>
                <path fill="#000" d="M13.655 25c0 .913-.742 1.655-1.655 1.655s-1.655-.742-1.655-1.655.742-1.655 1.655-1.655 1.655.742 1.655 1.655M9 25c0 1.654 1.346 3 3 3s3-1.346 3-3-1.346-3-3-3-3 1.346-3 3M24.655 25c0 .913-.742 1.655-1.655 1.655s-1.655-.742-1.655-1.655.742-1.655 1.655-1.655 1.655.742 1.655 1.655M20 25c0 1.654 1.346 3 3 3s3-1.346 3-3-1.346-3-3-3-3 1.346-3 3" transform="translate(-1289.000000, -39.000000) translate(1289.000000, 39.000000)"/>
                <g transform="translate(-1289.000000, -39.000000) translate(1289.000000, 39.000000)">
                    <mask id="jy0u24setb" fill="#fff">
                        <use xlink:href="#ja7tc10d0a"/>
                    </mask>
                    <path fill="#000" d="M24.644 17.43h-13.77c-1.04 0-1.937-.719-2.183-1.748L6.77 7.637h22.416l-2.39 8.158c-.281.963-1.167 1.635-2.152 1.635m3.587-1.198l2.677-9.14c.068-.231.024-.481-.117-.674-.141-.193-.364-.307-.6-.307H6.405l-.762-3.19C5.236 1.215 3.75.017 2.027.007L.753 0H.75C.337 0 .002.339 0 .759c-.002.421.33.765.745.767l1.274.008c1.033.006 1.925.725 2.17 1.747l3.047 12.762c.41 1.715 1.906 2.913 3.638 2.913h13.77c1.642 0 3.118-1.12 3.587-2.724" mask="url(#jy0u24setb)"/>
                </g>
            </g>
        </g>
    </g>
</svg>
