<svg xmlns="http://www.w3.org/2000/svg" width="44" height="44" viewBox="0 0 44 44">
    <g fill="none" fill-rule="evenodd">
        <g>
            <g>
                <path d="M0 0H44V44H0z" transform="translate(-1003.000000, -664.000000) translate(1003.000000, 664.000000)"/>
                <path fill="#F39101" d="M16.28 9l-.001 1.925h5.201V9h1.04l-.001 1.925h5.201V9h1.04v1.925h4.16c1.149 0 2.08.863 2.08 1.927v20.222C35 34.138 34.069 35 32.92 35H11.08C9.931 35 9 34.138 9 33.074V12.852c0-1.064.931-1.926 2.08-1.926l4.16-.001V9h1.04zm17.159 12.518H10.56v11.556c0 .236.184.433.427.474l.093.008h21.84c.255 0 .468-.17.512-.395l.008-.087-.001-11.556zm-.519-9.148h-4.16v1.445h-1.04V12.37h-5.201l.001 1.445h-1.04V12.37h-5.201l.001 1.445h-1.04V12.37h-4.16c-.255 0-.468.17-.512.395l-.008.087v7.703h22.879l.001-7.703c0-.237-.184-.433-.427-.474l-.093-.008z" transform="translate(-1003.000000, -664.000000) translate(1003.000000, 664.000000)"/>
            </g>
        </g>
    </g>
</svg>
