<?xml version="1.0" encoding="utf-8"?>
<!-- Generator: Adobe Illustrator 25.3.1, SVG Export Plug-In . SVG Version: 6.00 Build 0)  -->
<svg version="1.1" id="Layer_1" xmlns="http://www.w3.org/2000/svg" xmlns:xlink="http://www.w3.org/1999/xlink" x="0px" y="0px"
	 width="26px" height="26px" viewBox="0 0 26 26" style="enable-background:new 0 0 26 26;" xml:space="preserve">
<style type="text/css">
	.st0{fill-rule:evenodd;clip-rule:evenodd;}
</style>
<path class="st0" d="M25.7800293,12.7000122C25.5900269,12.4400024,21.75,7.3200073,16.4400024,5.5800171l1.710022-4.3600464
	l-0.9300537-0.3699951l-1.7399902,4.4500122C14.6799927,5.1099854,13.8499756,5,13,5
	C5.9899902,5,0.4500122,12.3900146,0.2199707,12.7000122L0,13l0.2199707,0.2999878
	C0.4099731,13.5599976,4.25,18.6799927,9.5599976,20.4199829l-1.710022,4.3600464l0.9300537,0.3699951l1.7399902-4.4500122
	C11.3200073,20.8900146,12.1500244,21,13,21c7.0100098,0,12.5499878-7.3900146,12.7800293-7.7000122L26,13L25.7800293,12.7000122z
	 M17.9099731,13c0,2.710022-2.1999512,4.9099731-4.9099731,4.9099731c-0.460022,0-0.9000244-0.0599976-1.3099976-0.1799927
	L15.25,8.6400146C16.8300171,9.4500122,17.9099731,11.0999756,17.9099731,13z M9.9199829,19.4799805
	C5.5800171,18.0599976,2.1500244,14.1199951,1.25,13C2.3599854,11.6300049,7.2600098,6,13,6
	c0.7199707,0,1.4199829,0.0900269,2.1099854,0.2399902L14.710022,7.25C14.1699829,7.0900269,13.5900269,7,13,7
	c-3.3099976,0-6,2.6900024-6,6c0,2.3599854,1.3699951,4.4000244,3.3499756,5.3800049L9.9199829,19.4799805z M8.0900269,13
	c0-2.710022,2.1999512-4.9099731,4.9099731-4.9099731c0.460022,0,0.9000244,0.0599976,1.3099976,0.1799927L10.75,17.3599854
	C9.1699829,16.5499878,8.0900269,14.9000244,8.0900269,13z M13,20c-0.7199707,0-1.4199829-0.0900269-2.1099854-0.2399902
	L11.289978,18.75C11.8300171,18.9099731,12.4099731,19,13,19c3.3099976,0,6-2.6900024,6-6
	c0-2.3599854-1.3699951-4.4000244-3.3499756-5.3800049l0.4299927-1.0999756C20.4199829,7.9400024,23.8499756,11.8800049,24.75,13
	C23.6400146,14.3699951,18.7399902,20,13,20z"/>
</svg>
