<?xml version="1.0" encoding="utf-8"?>
<!-- Generator: Adobe Illustrator 25.3.1, SVG Export Plug-In . SVG Version: 6.00 Build 0)  -->
<svg version="1.1" id="Layer_1" xmlns="http://www.w3.org/2000/svg" xmlns:xlink="http://www.w3.org/1999/xlink" x="0px" y="0px"
	 width="30px" height="30px" viewBox="0 0 30 30" style="enable-background:new 0 0 30 30;" xml:space="preserve">
<g id="Consumer-Sign-Up---Web-App">
	<g id="_x36_.-Sign-Up-Options---Web-App" transform="translate(-48.000000, -245.000000)">
		<path id="ic_email" d="M60.292263,275c2.9799423,0,5.6590233-0.7544556,8.0372505-2.2633667
			c0.1432648-0.1097412,0.2148972-0.2469177,0.2148972-0.4115295c0-0.1371765-0.0286484-0.2331848-0.0859604-0.2880554l0,0
			l-1.418335-2.2633972c-0.0859604-0.1646118-0.2149048-0.2468872-0.3868179-0.2468872
			c-0.057312,0-0.1576004,0.0411377-0.3008652,0.1234436c-1.6618881,1.0973816-3.4527206,1.6460876-5.3724899,1.6460876
			c-1.4899712,0-2.9011459-0.342926-4.2335243-1.0288086s-2.4212036-1.7215271-3.2664757-3.1069946s-1.26791-3.052124-1.26791-5
			c0-0.5761414,0.0429802-1.1934204,0.1289444-1.8518372c0.2865295-2.2496643,1.010025-4.2592773,2.1704865-6.0288239
			c1.1604576-1.7695465,2.6146126-3.1549988,4.3624611-4.1563721c1.7478523-1.0013733,3.6246414-1.5020599,5.6303711-1.5020599
			c1.7765045,0,3.3595963,0.3566589,4.7492828,1.0699615s2.4713516,1.7283936,3.2449875,3.0452728
			c0.7736435,1.316864,1.1604614,2.8532104,1.1604614,4.6090393c0,0.5212708-0.042984,1.0699768-0.1289444,1.6460876
			c-0.2005692,1.4814758-0.6017227,2.6886292-1.2034378,3.6213989c-0.6017151,0.9328003-1.375351,1.3992004-2.3209152,1.3992004
			c-0.6303711,0-1.1532974-0.2263489-1.5687714-0.6790161c-0.4154663-0.4526978-0.6232071-1.104248-0.6232071-1.9547424
			c0-0.3292236,0.014328-0.5898438,0.0429764-0.7818909l0,0l0.9885406-7.2016449
			c0.028656-0.3566589-0.1289368-0.5349884-0.4727783-0.5349884l0,0h-3.0515671
			c-0.3438492,0-0.5300903,0.1508942-0.5587463,0.4526825l0,0v0.1234589c0,0.1920471-0.1002884,0.2194672-0.3008575,0.0823059
			c-0.3151855-0.3292236-0.6876793-0.5624237-1.1174812-0.6996002c-0.4297981-0.1371613-0.8166161-0.2057495-1.1604576-0.2057495
			c-1.461319,0-2.6002884,0.3909454-3.4169044,1.1728363c-0.8166199,0.7818909-1.3681984,2.0095978-1.6547279,3.683136
			c-0.1432686,0.7132874-0.2578773,1.5363464-0.3438416,2.4691162l0,0l-0.1289368,1.0699768
			c-0.1432686,0.9053345-0.214901,1.6460876-0.214901,2.2221985c0,1.2345886,0.4083099,2.2908325,1.224926,3.1687317
			c0.8166199,0.8779297,1.9985695,1.316864,3.545845,1.316864c0.6017227,0,1.2249298-0.1165771,1.8696327-0.3497925
			c0.6446953-0.2331848,1.1819496-0.6515503,1.6117439-1.255127c0.0859604-0.1097412,0.1862411-0.1234741,0.3008575-0.0411682
			c1.0315247,1.1248474,2.507164,1.6872559,4.4269409,1.6872559c2.2349548,0,4.1117401-0.761322,5.6303711-2.2839661
			c1.5186234-1.5226135,2.46418-3.6419678,2.8366699-6.3580017C77.957016,258.4019165,78,257.7160339,78,257.0576172
			c0-2.3868408-0.5515747-4.4924622-1.6547318-6.3168793c-1.1031494-1.8244171-2.6504288-3.2373047-4.6418304-4.238678
			C69.7120285,245.5006866,67.4555893,245,64.9340973,245c-2.7507172,0-5.3438416,0.6447144-7.7793732,1.9341583
			c-2.435524,1.2894287-4.4484215,3.0864105-6.0386772,5.3909454c-1.5902557,2.3045197-2.5716324,4.9108276-2.9441299,7.8189392
			C48.0573082,260.8847656,48,261.6666565,48,262.4897156c0,2.5239868,0.5372505,4.7325134,1.6117477,6.6255188
			c1.074501,1.8930054,2.5501404,3.3470459,4.4269371,4.3621216C55.9154739,274.4924622,58,275,60.292263,275z
			 M61.7965622,264.5061646c-0.4584541,0-0.8094597-0.1508789-1.0530128-0.4526672s-0.3366737-0.7133179-0.2793694-1.2345581l0,0
			l0.3438416-2.5102844c0.028656-0.3017883,0.1432648-1.179718,0.3438416-2.6337585
			c0.0573044-0.4938354,0.2507172-0.8984985,0.5802269-1.2139893c0.3295135-0.3154907,0.7234955-0.4732513,1.1819496-0.4732513
			c0.4584503,0,0.8022919,0.1577606,1.0315208,0.4732513c0.2292213,0.3154907,0.3151894,0.7201538,0.2578773,1.2139893
			c-0.1432648,0.7407532-0.2578773,1.5775146-0.3438416,2.5102844l0,0l-0.3438377,2.6337585
			c-0.0859604,0.5212402-0.2793694,0.9327698-0.5802307,1.2345581
			C62.6346703,264.3552856,62.2550125,264.5061646,61.7965622,264.5061646z"/>
	</g>
</g>
</svg>
