<svg xmlns="http://www.w3.org/2000/svg" xmlns:xlink="http://www.w3.org/1999/xlink" width="26" height="16" viewBox="0 0 26 16">
    <defs>
        <path id="yktgxzowza" d="M0 0L26 0 26 16 0 16z"/>
    </defs>
    <g fill="none" fill-rule="evenodd">
        <g>
            <g>
                <g transform="translate(-304.000000, -253.000000) translate(304.000000, 253.000000)">
                    <mask id="87szci1cqb" fill="#fff">
                        <use xlink:href="#yktgxzowza"/>
                    </mask>
                    <path fill="#000" d="M1.25 8C2.36 9.374 7.26 15 13 15s10.64-5.626 11.75-7C23.64 6.627 18.74 1 13 1S2.36 6.627 1.25 8M13 16C5.994 16 .454 8.614.221 8.3L0 8l.22-.299C.455 7.387 5.995 0 13 0c7.007 0 12.546 7.387 12.779 7.701l.221.3-.22.298C25.545 8.614 20.006 16 13 16" mask="url(#87szci1cqb)"/>
                </g>
                <path fill="#000" d="M13 3.09c-2.707 0-4.91 2.203-4.91 4.91 0 2.707 2.203 4.91 4.91 4.91 2.707 0 4.91-2.203 4.91-4.91 0-2.707-2.203-4.91-4.91-4.91M13 14c-3.308 0-6-2.692-6-6s2.692-6 6-6 6 2.692 6 6-2.692 6-6 6" transform="translate(-304.000000, -253.000000) translate(304.000000, 253.000000)"/>
            </g>
        </g>
    </g>
</svg>
