<svg xmlns="http://www.w3.org/2000/svg" xmlns:xlink="http://www.w3.org/1999/xlink" width="26" height="26" viewBox="0 0 26 26">
    <defs>
        <filter id="wfup8i9xca" color-interpolation-filters="auto">
            <feColorMatrix in="SourceGraphic" values="0 0 0 0 0.000000 0 0 0 0 0.000000 0 0 0 0 0.000000 0 0 0 1.000000 0"/>
        </filter>
        <path id="o9570qkvmb" d="M0 0L26 0 26 16 0 16z"/>
    </defs>
    <g fill="none" fill-rule="evenodd">
        <g filter="url(#wfup8i9xca)" transform="translate(-304.000000, -248.000000)">
            <g>
                <g transform="translate(304.000000, 249.000000) translate(0.000000, 4.000000)">
                    <mask id="w680jjny4c" fill="#fff">
                        <use xlink:href="#o9570qkvmb"/>
                    </mask>
                    <path fill="#000" d="M1.25 8C2.36 9.374 7.26 15 13 15s10.64-5.626 11.75-7C23.64 6.627 18.74 1 13 1S2.36 6.627 1.25 8M13 16C5.994 16 .454 8.614.221 8.3L0 8l.22-.299C.455 7.387 5.995 0 13 0c7.007 0 12.546 7.387 12.779 7.701l.221.3-.22.298C25.545 8.614 20.006 16 13 16" mask="url(#w680jjny4c)"/>
                </g>
                <path fill="#000" d="M13 7.09c-2.707 0-4.91 2.203-4.91 4.91 0 2.707 2.203 4.91 4.91 4.91 2.707 0 4.91-2.203 4.91-4.91 0-2.707-2.203-4.91-4.91-4.91M13 18c-3.308 0-6-2.692-6-6s2.692-6 6-6 6 2.692 6 6-2.692 6-6 6" transform="translate(304.000000, 249.000000)"/>
                <path stroke="#000" stroke-linecap="square" d="M17.5 0.5L8.5 23.5" transform="translate(304.000000, 249.000000)"/>
            </g>
        </g>
    </g>
</svg>
