<svg xmlns="http://www.w3.org/2000/svg" width="24" height="24" viewBox="0 0 24 24">
    <g fill="none" fill-rule="evenodd">
        <g>
            <g>
                <path d="M0 0H24V24H0z" transform="translate(-124.000000, -272.000000) translate(124.000000, 272.000000)"/>
                <path fill="#F39100" fill-rule="nonzero" d="M12.741 17c.157 0 .235-.078.235-.235V13.14c0-.063.032-.094.095-.094h3.694c.157 0 .235-.078.235-.235v-1.483c0-.156-.078-.235-.235-.235H13.07c-.063 0-.095-.031-.095-.094V7.235c0-.157-.078-.235-.235-.235H11.26c-.157 0-.235.078-.235.235V11c0 .063-.032.094-.095.094H7.235c-.157 0-.235.079-.235.235v1.483c0 .157.078.235.235.235h3.694c.063 0 .095.031.095.094v3.624c0 .157.078.235.235.235h1.482z" transform="translate(-124.000000, -272.000000) translate(124.000000, 272.000000)"/>
            </g>
        </g>
    </g>
</svg>
