<svg xmlns="http://www.w3.org/2000/svg" width="44" height="44" viewBox="0 0 44 44">
    <g fill="none" fill-rule="evenodd">
        <g>
            <g>
                <path d="M0 0H44V44H0z" transform="translate(-50.000000, -262.000000) translate(50.000000, 262.000000)"/>
                <path fill="#000" d="M12.952 13.5v-2.457h18.096V13.5l-7.34 8.454c-.084.095-.13.229-.13.369v8.867l-2.912 1.768v-10.37c0-.14-.047-.274-.13-.37L12.952 13.5zm7.06 20.425c.067.05.143.075.22.075.063 0 .126-.017.184-.051l3.783-2.245c.142-.085.232-.259.232-.448v-8.873l7.437-8.37c.085-.095.132-.226.132-.364V10.5c0-.276-.186-.5-.417-.5H12.417c-.23 0-.417.224-.417.5v3.149c0 .138.047.27.132.365l7.683 8.631V33.5c0 .173.075.334.197.425z" transform="translate(-50.000000, -262.000000) translate(50.000000, 262.000000)"/>
            </g>
        </g>
    </g>
</svg>
