<svg xmlns="http://www.w3.org/2000/svg" width="30" height="30" viewBox="0 0 30 30">
    <g fill="none" fill-rule="evenodd">
        <g fill-rule="nonzero">
            <g>
                <path fill="#FFC107" d="M29.708 12.062H28.5V12H15v6h8.477c-1.236 3.493-4.56 6-8.477 6-4.97 0-9-4.03-9-9s4.03-9 9-9c2.294 0 4.381.865 5.97 2.28l4.244-4.243C22.534 1.54 18.95 0 15 0 6.716 0 0 6.716 0 15c0 8.284 6.716 15 15 15 8.284 0 15-6.716 15-15 0-1.006-.104-1.988-.292-2.938z" transform="translate(-48.000000, -474.000000) translate(48.000000, 474.000000)"/>
                <path fill="#FF3D00" d="M1.73 8.018l4.928 3.614C7.99 8.332 11.22 6 15 6c2.294 0 4.381.865 5.97 2.28l4.244-4.243C22.534 1.54 18.95 0 15 0 9.239 0 4.242 3.253 1.73 8.018z" transform="translate(-48.000000, -474.000000) translate(48.000000, 474.000000)"/>
                <path fill="#4CAF50" d="M15 30c3.875 0 7.395-1.483 10.057-3.894l-4.643-3.929C18.908 23.319 17.036 24 15 24c-3.902 0-7.214-2.488-8.462-5.96l-4.892 3.77C4.13 26.666 9.17 30 15 30z" transform="translate(-48.000000, -474.000000) translate(48.000000, 474.000000)"/>
                <path fill="#1976D2" d="M29.708 12.062H28.5V12H15v6h8.477c-.594 1.678-1.673 3.125-3.065 4.178l.002-.001 4.643 3.928C24.728 26.404 30 22.5 30 15c0-1.006-.104-1.988-.292-2.938z" transform="translate(-48.000000, -474.000000) translate(48.000000, 474.000000)"/>
            </g>
        </g>
    </g>
</svg>
