<svg xmlns="http://www.w3.org/2000/svg" xmlns:xlink="http://www.w3.org/1999/xlink" width="44" height="44" viewBox="0 0 44 44">
    <defs>
        <path id="ix2908t9za" d="M0 0L44 0 44 44 0 44z"/>
    </defs>
    <g fill="none" fill-rule="evenodd">
        <g>
            <g transform="translate(-844.000000, -526.000000) translate(844.000000, 526.000000)">
                <mask id="r1alo252mb" fill="#fff">
                    <use xlink:href="#ix2908t9za"/>
                </mask>
                <path fill="#000" d="M32.544 6.326c2.32 0 4.645.887 6.431 2.672 3.572 3.57 3.569 9.304 0 12.879L22.501 38.375C17.008 32.884 11.52 27.388 6.027 21.898c-3.572-3.57-3.572-9.308 0-12.879 3.572-3.57 9.29-3.57 12.863 0l3.12 3.136c.266.26.695.26.961 0l3.141-3.157c1.786-1.785 4.112-2.672 6.432-2.672m0-1.326c-2.678 0-5.35 1.009-7.393 3.051l-2.65 2.673-2.65-2.652c-4.087-4.085-10.699-4.085-14.786 0-4.087 4.086-4.087 10.687 0 14.773l16.966 16.96c.266.26.695.26.962 0l16.944-16.981c4.082-4.09 4.086-10.687 0-14.773C37.893 6.01 35.222 5 32.544 5" mask="url(#r1alo252mb)"/>
            </g>
        </g>
    </g>
</svg>
