<svg enable-background="new 0 0 64 64" viewBox="0 0 64 64" xmlns="http://www.w3.org/2000/svg" xmlns:xlink="http://www.w3.org/1999/xlink"><radialGradient id="a" cx="42.4708" cy="65.0123" gradientTransform="matrix(81.2562 0 0 -81.2562 -3446.8748 5345.251)" gradientUnits="userSpaceOnUse" r="1"><stop offset=".09" stop-color="#fa8f21"/><stop offset=".78" stop-color="#d82d7e"/></radialGradient><radialGradient id="b" cx="42.3987" cy="65.014" gradientTransform="matrix(71.5063 0 0 -71.5063 -2987.4404 4709.4526)" gradientUnits="userSpaceOnUse" r="1"><stop offset=".64" stop-color="#8c3aaa" stop-opacity="0"/><stop offset="1" stop-color="#8c3aaa"/></radialGradient><path d="m16.23 63.77c-3.81-.17-5.87-.81-7.25-1.34-1.82-.71-3.12-1.55-4.49-2.92s-2.21-2.66-2.92-4.49c-.54-1.38-1.17-3.44-1.34-7.25-.19-4.11-.23-5.34-.23-15.77 0-10.42.04-11.66.23-15.77.17-3.81.81-5.87 1.34-7.25.71-1.82 1.56-3.12 2.92-4.49 1.37-1.37 2.66-2.21 4.49-2.92 1.38-.54 3.44-1.17 7.25-1.34 4.11-.19 5.35-.23 15.77-.23s11.66.04 15.77.23c3.81.17 5.87.81 7.25 1.34 1.82.71 3.12 1.55 4.49 2.92s2.21 2.67 2.92 4.49c.54 1.38 1.17 3.44 1.34 7.25.19 4.11.23 5.35.23 15.77s-.04 11.66-.23 15.77c-.17 3.81-.81 5.87-1.34 7.25-.71 1.82-1.55 3.12-2.92 4.49s-2.67 2.21-4.49 2.92c-1.38.54-3.44 1.17-7.25 1.34-4.11.19-5.35.23-15.77.23s-11.66-.04-15.77-.23" fill="url(#a)"/><path d="m16.23 63.77c-3.81-.17-5.87-.81-7.25-1.34-1.82-.71-3.12-1.55-4.49-2.92s-2.21-2.66-2.92-4.49c-.54-1.38-1.17-3.44-1.34-7.25-.19-4.11-.23-5.34-.23-15.77 0-10.42.04-11.66.23-15.77.17-3.81.81-5.87 1.34-7.25.71-1.82 1.56-3.12 2.92-4.49 1.37-1.37 2.66-2.21 4.49-2.92 1.38-.54 3.44-1.17 7.25-1.34 4.11-.19 5.35-.23 15.77-.23s11.66.04 15.77.23c3.81.17 5.87.81 7.25 1.34 1.82.71 3.12 1.55 4.49 2.92s2.21 2.67 2.92 4.49c.54 1.38 1.17 3.44 1.34 7.25.19 4.11.23 5.35.23 15.77s-.04 11.66-.23 15.77c-.17 3.81-.81 5.87-1.34 7.25-.71 1.82-1.55 3.12-2.92 4.49s-2.67 2.21-4.49 2.92c-1.38.54-3.44 1.17-7.25 1.34-4.11.19-5.35.23-15.77.23s-11.66-.04-15.77-.23" fill="url(#b)"/><path d="m24.14 32.14c0-4.38 3.55-7.93 7.92-7.93s7.93 3.55 7.93 7.93-3.55 7.93-7.93 7.93-7.92-3.56-7.92-7.93zm-4.28 0c0 6.74 5.47 12.21 12.21 12.21s12.21-5.47 12.21-12.21-5.47-12.21-12.21-12.21c-6.75 0-12.21 5.46-12.21 12.21zm22.05-12.7c0 .56.17 1.12.48 1.59s.76.84 1.28 1.05c.52.22 1.09.27 1.65.16.55-.11 1.06-.38 1.46-.78s.67-.91.78-1.46.05-1.13-.16-1.65c-.22-.52-.58-.97-1.05-1.28s-1.02-.48-1.58-.48c-.76 0-1.48.3-2.02.84-.54.53-.84 1.26-.84 2.01zm-19.45 32.05c-2.32-.11-3.58-.49-4.42-.82-1.11-.43-1.9-.95-2.73-1.78s-1.35-1.62-1.78-2.73c-.33-.84-.71-2.1-.82-4.42-.12-2.51-.14-3.26-.14-9.61s.03-7.1.14-9.61c.11-2.32.49-3.58.82-4.42.43-1.11.95-1.9 1.78-2.73s1.62-1.35 2.73-1.78c.84-.33 2.1-.71 4.42-.82 2.51-.12 3.26-.14 9.61-.14s7.1.02 9.61.14c2.32.11 3.58.49 4.42.82 1.11.43 1.9.95 2.73 1.78s1.35 1.62 1.78 2.73c.33.84.71 2.1.82 4.42.12 2.51.14 3.26.14 9.61s-.02 7.1-.14 9.61c-.11 2.32-.49 3.58-.82 4.42-.43 1.11-.95 1.9-1.78 2.73s-1.62 1.35-2.73 1.78c-.84.33-2.1.71-4.42.82-2.51.12-3.26.14-9.61.14s-7.1-.02-9.61-.14zm-.2-42.99c-2.53.12-4.26.52-5.77 1.1-1.56.61-2.89 1.42-4.21 2.74s-2.13 2.66-2.74 4.22c-.59 1.51-.99 3.24-1.1 5.77-.12 2.54-.14 3.35-.14 9.8 0 6.46.03 7.27.14 9.8.12 2.53.52 4.26 1.1 5.77.61 1.56 1.42 2.89 2.74 4.21s2.65 2.13 4.21 2.74c1.51.59 3.24.99 5.77 1.1 2.54.12 3.35.14 9.8.14 6.46 0 7.27-.03 9.8-.14 2.53-.12 4.26-.52 5.77-1.1 1.56-.61 2.89-1.42 4.21-2.74s2.13-2.65 2.74-4.21c.59-1.51.99-3.24 1.1-5.77.12-2.54.14-3.35.14-9.8 0-6.46-.03-7.27-.14-9.8-.12-2.53-.52-4.26-1.1-5.77-.61-1.56-1.42-2.89-2.74-4.21s-2.65-2.14-4.21-2.74c-1.51-.59-3.24-.99-5.77-1.1-2.54-.12-3.35-.14-9.8-.14s-7.26.02-9.8.13" fill="#fff"/></svg>