<svg xmlns="http://www.w3.org/2000/svg" width="30" height="30" viewBox="0 0 30 30">
    <g fill="none" fill-rule="evenodd">
        <g>
            <g transform="translate(-1300.000000, -1496.000000) translate(1300.000000, 1496.000000)">
                <rect width="29" height="29" x=".5" y=".5" stroke="#666" rx="4"/>
                <path fill="#F39100" fill-rule="nonzero" d="M15.741 20c.157 0 .235-.078.235-.235V16.14c0-.063.032-.094.095-.094h3.694c.157 0 .235-.078.235-.235v-1.483c0-.156-.078-.235-.235-.235H16.07c-.063 0-.095-.031-.095-.094v-3.765c0-.157-.078-.235-.235-.235H14.26c-.157 0-.235.078-.235.235V14c0 .063-.032.094-.095.094h-3.694c-.157 0-.235.079-.235.235v1.483c0 .157.078.235.235.235h3.694c.063 0 .095.031.095.094v3.624c0 .157.078.235.235.235h1.482z"/>
            </g>
        </g>
    </g>
</svg>
