<svg xmlns="http://www.w3.org/2000/svg" xmlns:xlink="http://www.w3.org/1999/xlink" width="44" height="44" viewBox="0 0 44 44">
    <defs>
        <path id="9ctoks29va" d="M0 0L44 0 44 44 0 44z"/>
    </defs>
    <g fill="none" fill-rule="evenodd">
        <g>
            <g transform="translate(-1020.000000, -526.000000) translate(1020.000000, 526.000000)">
                <mask id="9j0socwt1b" fill="#fff">
                    <use xlink:href="#9ctoks29va"/>
                </mask>
                <path fill="#000" d="M21.923 2.082c.506 0 .997.183 1.356.525.36.341.606.825.606 1.573v17.27c-.005.286.241.549.511.549s.514-.263.51-.549V8.138c0-.748.247-1.248.607-1.59.36-.341.85-.524 1.356-.524.505 0 1.012.183 1.372.524.36.342.606.842.606 1.59V28.91c-.005.286.241.55.51.55.27 0 .515-.263.511-.55v-9.2c0-.748.245-1.25.606-1.591.362-.342.865-.524 1.373-.524s1.01.182 1.372.524c.36.342.606.843.606 1.59v9.506c0 4.282-1.495 7.415-3.717 9.523-2.222 2.109-5.197 3.18-8.185 3.18-2.988 0-5.979-1.071-8.2-3.18-2.222-2.108-3.702-5.24-3.702-9.523V13.788c0-.748.246-1.232.606-1.574.36-.34.85-.524 1.356-.524.506 0 1.013.183 1.373.524.36.342.606.826.606 1.574v9.608c-.005.285.24.548.51.548s.515-.263.51-.548V8.155c0-.753.246-1.246.607-1.59.362-.344.865-.525 1.372-.525.507 0 .995.181 1.357.525.36.344.605.837.605 1.59V21.62c-.004.285.241.548.511.548s.515-.262.51-.548V4.18c0-.748.247-1.232.607-1.573.36-.342.867-.525 1.372-.525m0-1.082c-.734 0-1.473.254-2.042.795-.57.54-.958 1.368-.958 2.385v1.505c-.56-.495-1.258-.727-1.962-.727-.736 0-1.487.252-2.058.795-.571.543-.941 1.38-.941 2.402v3.197c-.561-.501-1.272-.745-1.979-.745-.733 0-1.472.255-2.042.796-.57.54-.941 1.368-.941 2.385v15.426c0 4.55 1.62 8.028 4.052 10.335C15.484 41.856 18.706 43 21.923 43c3.217 0 6.439-1.144 8.87-3.451 2.433-2.307 4.053-5.785 4.053-10.335v-9.506c0-1.017-.386-1.862-.957-2.402-.572-.54-1.306-.795-2.042-.795-.703 0-1.418.235-1.979.727v-9.1c0-1.016-.372-1.844-.941-2.385-.57-.54-1.324-.812-2.058-.812-.702 0-1.404.25-1.963.744V4.18c0-1.017-.371-1.844-.94-2.385-.57-.541-1.31-.795-2.043-.795" mask="url(#9j0socwt1b)"/>
            </g>
        </g>
    </g>
</svg>
