<svg xmlns="http://www.w3.org/2000/svg" xmlns:xlink="http://www.w3.org/1999/xlink" width="27" height="27" viewBox="0 0 27 27">
    <defs>
        <path id="04m9rxzcta" d="M0 0L27 0 27 27 0 27z"/>
    </defs>
    <g fill="none" fill-rule="evenodd">
        <g>
            <g transform="translate(-1145.000000, -39.000000) translate(1145.000000, 39.000000)">
                <mask id="djv36r1m3b" fill="#fff">
                    <use xlink:href="#04m9rxzcta"/>
                </mask>
                <path fill="#000" d="M3.371 16.31C.938 13.364.666 9.035 2.621 5.776c1.96-3.273 5.868-5.03 9.604-4.269 3.736.762 6.634 3.821 7.239 7.602.073.46.1.928.1 1.39-.02 3.787-2.4 7.307-5.963 8.61-3.643 1.329-7.757.193-10.23-2.8m23.43 9.553l-3.004-3.02-4.812-4.836-.642-.645c1.257-1.458 2.125-3.255 2.417-5.2.08-.547.133-1.102.133-1.656v-.003-.004c-.02-4.395-2.792-8.363-6.9-9.88-4.068-1.502-8.84-.2-11.592 3.167-2.792 3.407-3.21 8.323-.93 12.124 2.272 3.794 6.752 5.751 11.06 4.89 1.835-.366 3.518-1.25 4.884-2.487l2.54 2.553c1.602 1.61 3.21 3.227 4.813 4.836l1.097 1.103c.604.607 1.548-.334.937-.942" mask="url(#djv36r1m3b)"/>
            </g>
        </g>
    </g>
</svg>
