<svg xmlns="http://www.w3.org/2000/svg" xmlns:xlink="http://www.w3.org/1999/xlink" width="24" height="24" viewBox="0 0 24 24">
    <defs>
        <filter id="93dhek4b1a" color-interpolation-filters="auto">
            <feColorMatrix in="SourceGraphic" values="0 0 0 0 0.341176 0 0 0 0 0.482353 0 0 0 0 0.874510 0 0 0 1.000000 0"/>
        </filter>
        <path id="khr1thokhb" d="M0 0L14 0 14 16 0 16z"/>
    </defs>
    <g fill="none" fill-rule="evenodd">
        <g>
            <g>
                <path d="M0 0H24V24H0z" transform="translate(-214.000000, -1555.000000) translate(214.000000, 1555.000000)"/>
                <g filter="url(#93dhek4b1a)" transform="translate(-214.000000, -1555.000000) translate(214.000000, 1555.000000)">
                    <g transform="translate(5.000000, 4.000000)">
                        <mask id="qt2jyipjxc" fill="#fff">
                            <use xlink:href="#khr1thokhb"/>
                        </mask>
                        <path fill="#000" d="M11.46 9.906c-1.075 0-1.95-.854-1.95-1.905 0-1.052.875-1.906 1.95-1.906 1.076 0 1.951.854 1.951 1.906 0 1.05-.875 1.905-1.95 1.905m-8.92 5.516c-1.076 0-1.95-.854-1.95-1.904 0-1.052.874-1.906 1.95-1.906 1.075 0 1.95.854 1.95 1.906 0 1.05-.876 1.904-1.95 1.904m0-11.033c-1.076 0-1.95-.855-1.95-1.906 0-1.05.874-1.905 1.95-1.905 1.075 0 1.95.854 1.95 1.905 0 1.05-.876 1.906-1.95 1.906m8.92 1.13c-.797 0-1.499.366-1.963.926L4.823 3.553c.16-.325.258-.686.258-1.07C5.08 1.113 3.94 0 2.54 0 1.14 0 0 1.113 0 2.482c0 1.37 1.14 2.482 2.54 2.482.796 0 1.498-.366 1.962-.926L9.178 6.93c-.16.325-.258.685-.258 1.07 0 .384.098.744.258 1.07l-4.676 2.892c-.464-.56-1.167-.926-1.962-.926-1.4 0-2.54 1.114-2.54 2.482S1.14 16 2.54 16c1.4 0 2.54-1.114 2.54-2.482 0-.385-.097-.746-.257-1.07l4.675-2.893c.464.56 1.167.927 1.963.927C12.86 10.482 14 9.368 14 7.999c0-1.367-1.138-2.48-2.54-2.48" mask="url(#qt2jyipjxc)"/>
                    </g>
                </g>
            </g>
        </g>
    </g>
</svg>
