<svg xmlns="http://www.w3.org/2000/svg" xmlns:xlink="http://www.w3.org/1999/xlink" width="44" height="44" viewBox="0 0 44 44">
    <defs>
        <path id="hrxoccvdma" d="M0 0L44 0 44 44 0 44z"/>
    </defs>
    <g fill="none" fill-rule="evenodd">
        <g>
            <g transform="translate(-1193.000000, -262.000000) translate(1193.000000, 262.000000)">
                <mask id="fwnrzyn96b" fill="#fff">
                    <use xlink:href="#hrxoccvdma"/>
                </mask>
                <path fill="#000" d="M28.715 15.224c-.269.03-.471.26-.465.53V31.27c-.74-.69-1.761-1.67-3.798-3.86-.108-.12-.264-.183-.425-.172-.288.02-.505.27-.486.557.009.122.06.236.143.325 2.89 3.107 3.92 3.948 4.73 4.725.2.191.516.191.718 0 .808-.777 1.84-1.618 4.729-4.725.196-.212.183-.543-.029-.739-.212-.196-.543-.183-.739.029-2.037 2.19-3.057 3.17-3.798 3.86V15.755c.006-.289-.223-.528-.511-.534-.023 0-.046 0-.069.003m0-2.612c-.269.03-.471.26-.465.53v.523c-.004.289.227.526.515.53.289.004.526-.227.53-.515v-.537c.006-.289-.223-.527-.511-.534-.023 0-.046 0-.069.003M16.154 10.01c-.107.015-.207.064-.286.138-.809.778-1.84 1.619-4.729 4.726-.196.212-.183.543.029.739.212.196.543.183.739-.029 2.036-2.19 3.057-3.163 3.798-3.852V32.47c-.004.288.226.526.515.53.289.004.526-.227.53-.515V11.73c.74.69 1.762 1.664 3.798 3.853.196.212.527.225.74.029.211-.196.224-.527.028-.739-2.89-3.107-3.92-3.948-4.73-4.726-.115-.11-.274-.16-.432-.138M28.715 10c-.269.03-.471.26-.465.53v.522c-.004.289.227.526.515.53.289.004.526-.226.53-.515v-.537c.005-.288-.226-.526-.514-.53h-.066" mask="url(#fwnrzyn96b)"/>
            </g>
        </g>
    </g>
</svg>
