<svg xmlns="http://www.w3.org/2000/svg" xmlns:xlink="http://www.w3.org/1999/xlink" width="44" height="44" viewBox="0 0 44 44">
    <defs>
        <filter id="950svpcj2a" color-interpolation-filters="auto">
            <feColorMatrix in="SourceGraphic" values="0 0 0 0 0.952941 0 0 0 0 0.584314 0 0 0 0 0.039216 0 0 0 1.000000 0"/>
        </filter>
        <path id="atr73j42vb" d="M0 0L44 0 44 44 0 44z"/>
    </defs>
    <g fill="none" fill-rule="evenodd">
        <g filter="url(#950svpcj2a)" transform="translate(-1149.000000, -783.000000)">
            <g transform="translate(1149.000000, 783.000000)">
                <mask id="gxrgo8tpfc" fill="#fff">
                    <use xlink:href="#atr73j42vb"/>
                </mask>
                <g mask="url(#gxrgo8tpfc)">
                    <g>
                        <g>
                            <path fill="#000" d="M16.665 37.47l-7.256-9.6c-.05-.057-.06-.074-.121-.118-.164-.116-.385-.132-.565-.043-.05.025-.097.058-.137.097-.02.02-.038.042-.056.063l-7.256 9.6v-36h15.39v36zM17.91.384c-.046-.14-.147-.258-.279-.324-.07-.036-.09-.036-.167-.054L17.378 0H.561C.483.006.462.003.387.027.218.082.082.217.027.385.003.459.007.479 0 .556v38.939c.003.03.003.062.008.092.01.061.03.12.06.175.091.164.264.274.452.288.063.004.125-.002.186-.018.06-.016.117-.042.169-.076.025-.018.048-.039.072-.058l.062-.07 7.96-10.531 7.96 10.532c.021.023.04.048.062.069.046.042.098.077.155.103.201.092.445.054.61-.095.045-.041.084-.09.114-.144.03-.055.05-.114.06-.175.006-.03.006-.061.008-.092V.556c-.006-.077-.003-.097-.027-.171z" transform="translate(13.000000, 2.000000)"/>
                        </g>
                        <path fill="#F39100" d="M8 9.983H10V17.983H8z" transform="translate(13.000000, 2.000000)"/>
                        <path fill="#F39100" d="M8 9.983L10 9.983 10 17.983 8 17.983z" transform="translate(13.000000, 2.000000) translate(9.000000, 13.982978) rotate(90.000000) translate(-9.000000, -13.982978)"/>
                    </g>
                </g>
            </g>
        </g>
    </g>
</svg>
