<svg xmlns="http://www.w3.org/2000/svg" xmlns:xlink="http://www.w3.org/1999/xlink" width="44" height="44" viewBox="0 0 44 44">
    <defs>
        <filter id="eizdao5pya" color-interpolation-filters="auto">
            <feColorMatrix in="SourceGraphic" values="0 0 0 0 0.058824 0 0 0 0 0.058824 0 0 0 0 0.058824 0 0 0 1.000000 0"/>
        </filter>
        <path id="ewhrlge7tb" d="M0 0L44 0 44 44 0 44z"/>
    </defs>
    <g fill="none" fill-rule="evenodd">
        <g filter="url(#eizdao5pya)" transform="translate(-932.000000, -526.000000)">
            <g transform="translate(932.000000, 526.000000)">
                <mask id="yyl2ava0wc" fill="#fff">
                    <use xlink:href="#ewhrlge7tb"/>
                </mask>
                <path fill="#000" d="M34.289 27.004c-2.843 0-5.157-2.243-5.157-5.003 0-2.759 2.314-5.002 5.157-5.002s5.154 2.243 5.154 5.002c0 2.76-2.31 5.003-5.154 5.003m-23.575 14.48c-2.843 0-5.155-2.243-5.155-5 0-2.762 2.312-5.002 5.155-5.002 2.843 0 5.154 2.24 5.154 5.002 0 2.757-2.314 5-5.154 5m0-28.963c-2.843 0-5.155-2.243-5.155-5.003 0-2.756 2.312-5.002 5.155-5.002 2.843 0 5.154 2.243 5.154 5.002 0 2.757-2.314 5.003-5.154 5.003m23.575 2.965c-2.105 0-3.96.962-5.188 2.432l-12.356-7.592c.424-.854.683-1.8.683-2.81C17.428 3.924 14.415 1 10.714 1 7.013 1 4 3.921 4 7.516c0 3.594 3.013 6.516 6.714 6.516 2.102 0 3.957-.963 5.185-2.433l12.358 7.592c-.423.854-.682 1.8-.682 2.808 0 1.008.259 1.954.682 2.808L15.9 32.4c-1.228-1.47-3.085-2.433-5.185-2.433C7.013 29.968 4 32.893 4 36.484 4 40.076 7.013 43 10.714 43c3.7 0 6.714-2.924 6.714-6.516 0-1.01-.26-1.956-.683-2.81l12.356-7.592c1.228 1.47 3.085 2.432 5.188 2.432C37.987 28.514 41 25.59 41 22c0-3.59-3.007-6.513-6.711-6.513" mask="url(#yyl2ava0wc)"/>
            </g>
        </g>
    </g>
</svg>
