<svg xmlns="http://www.w3.org/2000/svg" xmlns:xlink="http://www.w3.org/1999/xlink" width="24" height="27" viewBox="0 0 24 27">
    <defs>
        <path id="ih7emflg6a" d="M0 0.011L23.968 0.011 23.968 13 0 13z"/>
    </defs>
    <g fill="none" fill-rule="evenodd">
        <g>
            <g>
                <path fill="#000" d="M17.659 7c0 2.968-2.172 5.4-4.894 5.549-.088.004-.176.007-.265.007-.089 0-.177-.003-.265-.007C9.513 12.399 7.34 9.968 7.34 7c0-2.968 2.172-5.4 4.894-5.549.088-.004.176-.007.265-.007.089 0 .177.003.265.007 2.722.15 4.894 2.581 4.894 5.549M12.5 14c3.584 0 6.5-3.14 6.5-7s-2.916-7-6.5-7S6 3.14 6 7s2.916 7 6.5 7" transform="translate(-1222.000000, -39.000000) translate(1222.000000, 39.000000)"/>
                <g transform="translate(-1222.000000, -39.000000) translate(1222.000000, 39.000000) translate(0.000000, 14.000000)">
                    <mask id="zorctgzkpb" fill="#fff">
                        <use xlink:href="#ih7emflg6a"/>
                    </mask>
                    <path fill="#000" d="M1.395 5.48c0-2.193 1.669-3.977 3.719-3.977h13.74c2.05 0 3.718 1.784 3.718 3.976v6.029H1.395V5.479zM18.854.01H5.114C2.294.011 0 2.464 0 5.479v6.775c0 .411.313.746.698.746H23.27c.385 0 .698-.335.698-.746V5.479c0-3.015-2.294-5.468-5.114-5.468z" mask="url(#zorctgzkpb)"/>
                </g>
            </g>
        </g>
    </g>
</svg>
