<svg xmlns="http://www.w3.org/2000/svg" xmlns:xlink="http://www.w3.org/1999/xlink" width="44" height="44" viewBox="0 0 44 44">
    <defs>
        <filter id="75kskemnia" color-interpolation-filters="auto">
            <feColorMatrix in="SourceGraphic" values="0 0 0 0 0.000000 0 0 0 0 0.000000 0 0 0 0 0.000000 0 0 0 1.000000 0"/>
        </filter>
        <path id="4zuh70o6zb" d="M0 0L44 0 44 44 0 44z"/>
    </defs>
    <g fill="none" fill-rule="evenodd">
        <g filter="url(#75kskemnia)" transform="translate(-751.000000, -526.000000)">
            <g transform="translate(751.000000, 526.000000)">
                <mask id="5kkumvaboc" fill="#fff">
                    <use xlink:href="#4zuh70o6zb"/>
                </mask>
                <path fill="#000" d="M23.118 20.473v5.948c0 .61-.501 1.105-1.118 1.105-.617 0-1.118-.495-1.118-1.105v-5.948l-6.089-3.009c-.552-.274-.775-.937-.498-1.483.275-.546.948-.767 1.5-.495L22 18.554l6.205-3.068c.552-.272 1.223-.051 1.5.495.275.546.053 1.209-.499 1.483l-6.088 3.009zm-.6 22.401c-.154.082-.33.126-.518.126s-.364-.044-.519-.126l-6.688-3.305c-.552-.274-.775-.937-.498-1.483.275-.546.948-.77 1.5-.495l5.087 2.515v-5.948c0-.61.5-1.105 1.118-1.105.617 0 1.118.495 1.118 1.105v5.948l5.087-2.515c.552-.274 1.223-.051 1.5.495.275.546.053 1.21-.499 1.483l-6.688 3.305zM21.481 1.128C21.636 1.046 21.812 1 22 1s.364.046.518.128l6.688 3.305c.552.274.774.937.499 1.483-.277.546-.948.767-1.5.495l-5.087-2.517v5.948c0 .61-.501 1.105-1.118 1.105-.617 0-1.118-.495-1.118-1.105V3.894L15.795 6.41c-.552.272-1.225.051-1.5-.495-.277-.546-.054-1.209.498-1.483l6.688-3.305zM5.235 12.736v5.948c0 .61-.5 1.105-1.117 1.105S3 19.294 3 18.684V10.97c-.002-.16.03-.327.103-.484.054-.117.13-.225.224-.316.091-.093.192-.163.301-.214l6.695-3.312c.552-.271 1.225-.05 1.5.496.277.546.053 1.209-.499 1.483l-4.707 2.325 4.707 2.328c.552.274.776.937.499 1.483-.275.546-.948.767-1.5.495l-5.088-2.517zm1.382 20.317l4.707 2.327c.552.272.776.938.499 1.484-.275.546-.948.767-1.5.495l-6.695-3.312c-.212-.101-.395-.272-.51-.5-.006-.01-.01-.021-.015-.032-.011-.022-.022-.049-.031-.073-.052-.135-.074-.274-.072-.41v-7.716c0-.61.5-1.105 1.118-1.105.617 0 1.117.495 1.117 1.105v5.948l5.088-2.515c.552-.272 1.225-.051 1.5.495.277.546.053 1.21-.499 1.483l-4.707 2.326zM41 33.033c.004.161-.03.325-.103.482-.054.117-.13.225-.224.318s-.192.161-.302.214l-6.694 3.312c-.552.272-1.223.05-1.5-.495-.275-.546-.054-1.212.498-1.484l4.708-2.327-4.708-2.326c-.552-.274-.773-.937-.498-1.483.277-.546.948-.767 1.5-.495l5.087 2.515v-5.948c0-.61.501-1.105 1.118-1.105.617 0 1.118.495 1.118 1.105v7.717zM40.37 9.955c.213.102.396.272.51.5l.016.03c.011.025.022.049.031.073.051.137.074.274.072.411v7.715c0 .61-.501 1.105-1.118 1.105-.617 0-1.118-.495-1.118-1.105v-5.948l-5.087 2.517c-.552.272-1.223.051-1.5-.495-.275-.546-.054-1.209.498-1.483l4.708-2.328-4.708-2.325c-.552-.274-.773-.937-.498-1.483.277-.546.948-.767 1.5-.496l6.694 3.312z" mask="url(#5kkumvaboc)"/>
            </g>
        </g>
    </g>
</svg>
