<?xml version="1.0" encoding="UTF-8"?>
<svg width="24px" height="24px" viewBox="0 0 24 24" version="1.1" xmlns="http://www.w3.org/2000/svg" xmlns:xlink="http://www.w3.org/1999/xlink">
    <title>ic_error</title>
    <g id="Artist-Registeration---Web-App" stroke="none" stroke-width="1" fill="none" fill-rule="evenodd">
        <g id="4.-Incorrect-Name/Web-App" transform="translate(-305.000000, -248.000000)" fill="#FF0000">
            <path d="M317,248 C323.627417,248 329,253.372583 329,260 C329,266.627417 323.627417,272 317,272 C310.372583,272 305,266.627417 305,260 C305,253.372583 310.372583,248 317,248 Z M316.94,264.661 C316.205,264.661 316.205,264.661 315.743,265.123 C315.281,265.585 315.281,265.585 315.281,266.32 C315.281,267.034 315.281,267.034 315.7535,267.5065 C316.226,267.979 316.226,267.979 316.94,267.979 C317.654,267.979 317.654,267.979 318.116,267.5065 C318.578,267.034 318.578,267.034 318.578,266.32 C318.578,265.585 318.578,265.585 318.1265,265.123 C317.675,264.661 317.675,264.661 316.94,264.661 Z M318.137,253.3 L315.68,253.3 C315.575,253.3 315.575,253.3 315.5015,253.3735 C315.4525,253.4225 315.4525,253.4225 315.436167,253.4855 L315.428,253.552 L315.743,262.708 C315.743,262.813 315.743,262.813 315.8165,262.8865 C315.8655,262.9355 315.8655,262.9355 315.9285,262.951833 L315.995,262.96 L317.843,262.96 C317.948,262.96 317.948,262.96 318.0215,262.8865 C318.0705,262.8375 318.0705,262.8375 318.086833,262.7745 L318.095,262.708 L318.389,253.552 C318.389,253.447 318.389,253.447 318.3155,253.3735 C318.2665,253.3245 318.2665,253.3245 318.2035,253.308167 L318.137,253.3 Z" id="ic_error"></path>
        </g>
    </g>
</svg>