<svg id="Layer_1" data-name="Layer 1" xmlns="http://www.w3.org/2000/svg" xmlns:xlink="http://www.w3.org/1999/xlink" viewBox="0 0 208.7 30.54"><defs><style>.cls-1,.cls-2{fill:none;}.cls-2{clip-rule:evenodd;}.cls-3{clip-path:url(#clip-path);}.cls-4{fill:#221e1f;}.cls-5{clip-path:url(#clip-path-2);}.cls-6{clip-path:url(#clip-path-3);}.cls-7{clip-path:url(#clip-path-4);}.cls-8{isolation:isolate;}.cls-9{clip-path:url(#clip-path-5);}.cls-10{clip-path:url(#clip-path-6);}.cls-11{clip-path:url(#clip-path-7);}.cls-12{clip-path:url(#clip-path-8);}.cls-13{clip-path:url(#clip-path-9);}.cls-14{clip-path:url(#clip-path-10);}.cls-15{clip-path:url(#clip-path-12);}.cls-16{clip-path:url(#clip-path-14);}.cls-17{clip-path:url(#clip-path-15);}.cls-18{clip-path:url(#clip-path-17);}.cls-19{clip-path:url(#clip-path-19);}.cls-20{fill:#959595;}.cls-21{clip-path:url(#clip-path-20);}.cls-22{clip-path:url(#clip-path-21);}.cls-23{clip-path:url(#clip-path-22);}.cls-24{clip-path:url(#clip-path-24);}.cls-25{clip-path:url(#clip-path-26);}.cls-26{clip-path:url(#clip-path-28);}.cls-27{clip-path:url(#clip-path-30);}.cls-28{clip-path:url(#clip-path-32);}.cls-29{clip-path:url(#clip-path-34);}.cls-30{clip-path:url(#clip-path-36);}.cls-31{clip-path:url(#clip-path-38);}.cls-32{clip-path:url(#clip-path-40);}.cls-33{clip-path:url(#clip-path-42);}.cls-34{clip-path:url(#clip-path-43);}.cls-35{clip-path:url(#clip-path-45);}.cls-36{clip-path:url(#clip-path-46);}.cls-37{clip-path:url(#clip-path-47);}.cls-38{clip-path:url(#clip-path-48);}.cls-39{clip-path:url(#clip-path-50);}.cls-40{clip-path:url(#clip-path-52);}.cls-41{fill:#fff;}.cls-42{clip-path:url(#clip-path-54);}</style><clipPath id="clip-path" transform="translate(3.85 3.71)"><rect class="cls-1" x="105.79" y="5.95" width="0.77" height="11.51"/></clipPath><clipPath id="clip-path-2" transform="translate(3.85 3.71)"><path class="cls-2" d="M71,11.8a5,5,0,1,1-1.46-3.53l.54-.54a5.77,5.77,0,1,0,0,8.14,5.73,5.73,0,0,0,1.69-4.07Z"/></clipPath><clipPath id="clip-path-3" transform="translate(3.85 3.71)"><rect class="cls-1" x="-60.37" y="-147.26" width="1252.2" height="3868.78"/></clipPath><clipPath id="clip-path-4" transform="translate(3.85 3.71)"><rect class="cls-1" x="0.5" y="0.64" width="200" height="21.84"/></clipPath><clipPath id="clip-path-5" transform="translate(3.85 3.71)"><rect class="cls-1" x="0.5" y="0.57" width="200" height="22.61"/></clipPath><clipPath id="clip-path-6" transform="translate(3.85 3.71)"><rect class="cls-1" x="69.07" y="11.8" width="2.3" height="0.76"/></clipPath><clipPath id="clip-path-7" transform="translate(3.85 3.71)"><rect class="cls-1" x="76.69" y="11.8" width="2.31" height="0.76"/></clipPath><clipPath id="clip-path-8" transform="translate(3.85 3.71)"><rect class="cls-1" x="121.34" y="13.17" width="0.77" height="4.29"/></clipPath><clipPath id="clip-path-9" transform="translate(3.85 3.71)"><rect class="cls-1" x="106.25" y="5.95" width="3.01" height="0.76"/></clipPath><clipPath id="clip-path-10" transform="translate(3.85 3.71)"><polygon class="cls-2" points="97.61 16.7 97.61 5.95 96.85 5.95 96.85 16.7 96.85 17.46 97.61 17.46 99.84 17.46 99.84 16.7 97.61 16.7"/></clipPath><clipPath id="clip-path-12" transform="translate(3.85 3.71)"><polygon class="cls-2" points="88.67 16.7 88.67 5.95 87.91 5.95 87.91 16.7 87.91 17.46 88.67 17.46 90.89 17.46 90.89 16.7 88.67 16.7"/></clipPath><clipPath id="clip-path-14" transform="translate(3.85 3.71)"><rect class="cls-1" x="107.29" y="13.29" width="1.5" height="0.76"/></clipPath><clipPath id="clip-path-15" transform="translate(3.85 3.71)"><path class="cls-2" d="M108.8,6v.76A3.35,3.35,0,0,1,112.2,10a3.34,3.34,0,0,1-3.4,3.29v.77a4.06,4.06,0,1,0,0-8.11"/></clipPath><clipPath id="clip-path-17" transform="translate(3.85 3.71)"><polygon class="cls-2" points="114.01 17.46 109.85 13.31 109.3 13.86 112.92 17.46 114.01 17.46"/></clipPath><clipPath id="clip-path-19" transform="translate(3.85 3.71)"><rect class="cls-1" x="141.59" y="5.96" width="0.77" height="11.51"/></clipPath><clipPath id="clip-path-20" transform="translate(3.85 3.71)"><rect class="cls-1" x="141.59" y="5.96" width="3.01" height="0.76"/></clipPath><clipPath id="clip-path-21" transform="translate(3.85 3.71)"><rect class="cls-1" x="143.09" y="13.3" width="1.5" height="0.76"/></clipPath><clipPath id="clip-path-22" transform="translate(3.85 3.71)"><path class="cls-2" d="M144.6,6v.76A3.34,3.34,0,0,1,148,10a3.34,3.34,0,0,1-3.4,3.29v.76a4.05,4.05,0,1,0,0-8.1"/></clipPath><clipPath id="clip-path-24" transform="translate(3.85 3.71)"><polygon class="cls-2" points="149.81 17.47 145.65 13.32 145.1 13.86 148.72 17.47 149.81 17.47"/></clipPath><clipPath id="clip-path-26" transform="translate(3.85 3.71)"><polygon class="cls-2" points="125.54 5.95 121.73 12.53 117.91 5.95 117.03 5.95 121.28 13.29 121.72 14.05 121.72 14.05 121.73 14.05 121.73 14.05 121.73 14.05 122.17 13.29 126.43 5.95 125.54 5.95"/></clipPath><clipPath id="clip-path-28" transform="translate(3.85 3.71)"><polygon class="cls-2" points="81.67 11.34 82.55 11.34 80.04 7 79.6 6.24 79.6 6.24 79.59 6.24 79.59 6.24 79.59 6.24 79.15 7 73.09 17.46 73.97 17.46 79.59 7.76 81.67 11.34"/></clipPath><clipPath id="clip-path-30" transform="translate(3.85 3.71)"><path class="cls-2" d="M133.59,6h-3V17.47h.76V6.72h2.24A3.35,3.35,0,0,1,137,10a3.35,3.35,0,0,1-3.41,3.29v.76a4.05,4.05,0,1,0,0-8.1"/></clipPath><clipPath id="clip-path-32" transform="translate(3.85 3.71)"><polygon class="cls-2" points="33.81 5.88 31.43 5.88 30.66 5.88 28.28 5.88 28.28 6.64 30.66 6.64 30.66 17.48 31.43 17.48 31.43 6.64 33.81 6.64 33.81 5.88"/></clipPath><clipPath id="clip-path-34" transform="translate(3.85 3.71)"><polygon class="cls-2" points="200.5 6.1 198.12 6.1 197.35 6.1 194.97 6.1 194.97 6.87 197.35 6.87 197.35 17.71 198.12 17.71 198.12 6.87 200.5 6.87 200.5 6.1"/></clipPath><clipPath id="clip-path-36" transform="translate(3.85 3.71)"><path class="cls-2" d="M191.34,15.5a5,5,0,1,1,.07-7.13l.54-.54a5.77,5.77,0,1,0-.07,8.21Z"/></clipPath><clipPath id="clip-path-38" transform="translate(3.85 3.71)"><polygon class="cls-2" points="55.45 6.68 55.45 5.92 53.23 5.92 52.47 5.92 52.47 6.68 52.47 16.67 52.47 17.43 53.23 17.43 55.45 17.43 55.45 16.67 53.23 16.67 53.23 12.44 55.45 12.44 55.45 11.68 53.23 11.68 53.23 6.68 55.45 6.68"/></clipPath><clipPath id="clip-path-40" transform="translate(3.85 3.71)"><polygon class="cls-2" points="178.05 6.72 178.05 5.96 175.82 5.96 175.06 5.96 175.06 6.72 175.06 16.7 175.06 17.47 175.82 17.47 178.05 17.47 178.05 16.7 175.82 16.7 175.82 12.48 178.05 12.48 178.05 11.71 175.82 11.71 175.82 6.72 178.05 6.72"/></clipPath><clipPath id="clip-path-42" transform="translate(3.85 3.71)"><rect class="cls-1" x="168.91" y="5.78" width="0.77" height="9.21"/></clipPath><clipPath id="clip-path-43" transform="translate(3.85 3.71)"><path class="cls-2" d="M168.9,15a1.89,1.89,0,0,1-1.9,1.89v.76A2.66,2.66,0,0,0,169.67,15Z"/></clipPath><clipPath id="clip-path-45" transform="translate(3.85 3.71)"><rect class="cls-1" x="39.57" y="11.82" width="4.88" height="0.82"/></clipPath><clipPath id="clip-path-46" transform="translate(3.85 3.71)"><rect class="cls-1" x="38.81" y="5.88" width="0.77" height="11.6"/></clipPath><clipPath id="clip-path-47" transform="translate(3.85 3.71)"><rect class="cls-1" x="46.14" y="5.88" width="0.77" height="11.6"/></clipPath><clipPath id="clip-path-48" transform="translate(3.85 3.71)"><path class="cls-2" d="M154.91,7.93a5,5,0,1,1-.54.54l-.55-.55a5.79,5.79,0,1,0,4.35-2,5.81,5.81,0,0,0-3.81,1.42Z"/></clipPath><clipPath id="clip-path-50" transform="translate(3.85 3.71)"><path class="cls-2" d="M22.43,11.56A11,11,0,1,1,11.46.64a10.94,10.94,0,0,1,11,10.92"/></clipPath><clipPath id="clip-path-52" transform="translate(3.85 3.71)"><path class="cls-2" d="M18.2,11.7A6.67,6.67,0,1,1,16.25,7L17,6.28a7.65,7.65,0,1,0,2.25,5.42Z"/></clipPath><clipPath id="clip-path-54" transform="translate(3.85 3.71)"><rect class="cls-1" x="15.64" y="11.7" width="3.07" height="1.02"/></clipPath></defs><g class="cls-3"><rect class="cls-4" x="105.29" y="5.31" width="9.46" height="20.21"/></g><g class="cls-5"><g class="cls-6"><rect class="cls-4" x="59.7" y="5.4" width="20.25" height="20.21"/></g></g><g class="cls-7"><g class="cls-8"><g class="cls-9"><g class="cls-10"><rect class="cls-4" x="68.57" y="11.16" width="11" height="9.46"/></g><g class="cls-11"><rect class="cls-4" x="76.19" y="11.16" width="11.01" height="9.46"/></g><g class="cls-12"><rect class="cls-4" x="120.85" y="12.53" width="9.46" height="12.99"/></g><g class="cls-13"><rect class="cls-4" x="105.75" y="5.31" width="11.7" height="9.46"/></g><g class="cls-14"><g class="cls-9"><rect class="cls-4" x="96.35" y="5.31" width="11.68" height="20.21"/></g></g><g class="cls-15"><g class="cls-9"><rect class="cls-4" x="87.41" y="5.31" width="11.68" height="20.21"/></g></g><g class="cls-16"><rect class="cls-4" x="106.8" y="12.65" width="10.2" height="9.46"/></g><g class="cls-17"><g class="cls-9"><rect class="cls-4" x="108.3" y="5.31" width="12.77" height="16.8"/></g></g><g class="cls-18"><g class="cls-9"><rect class="cls-4" x="108.81" y="12.68" width="13.4" height="12.84"/></g></g><g class="cls-19"><rect class="cls-20" x="141.09" y="5.32" width="9.46" height="20.21"/></g><g class="cls-21"><rect class="cls-20" x="141.09" y="5.32" width="11.7" height="9.46"/></g><g class="cls-22"><rect class="cls-20" x="142.59" y="12.66" width="10.2" height="9.46"/></g><g class="cls-23"><g class="cls-9"><rect class="cls-20" x="144.1" y="5.32" width="12.77" height="16.8"/></g></g><g class="cls-24"><g class="cls-9"><rect class="cls-20" x="144.61" y="12.69" width="13.4" height="12.84"/></g></g><g class="cls-25"><g class="cls-9"><rect class="cls-4" x="116.53" y="5.31" width="18.1" height="16.8"/></g></g><g class="cls-26"><g class="cls-9"><rect class="cls-4" x="72.59" y="5.6" width="18.16" height="19.92"/></g></g><g class="cls-27"><g class="cls-9"><rect class="cls-20" x="130.09" y="5.32" width="15.77" height="20.21"/></g></g><g class="cls-28"><g class="cls-9"><rect class="cls-20" x="27.79" y="5.24" width="14.22" height="20.3"/></g></g><g class="cls-29"><g class="cls-9"><rect class="cls-20" x="194.47" y="5.46" width="14.22" height="20.3"/></g></g><g class="cls-30"><g class="cls-9"><rect class="cls-20" x="181.59" y="5.51" width="18.56" height="20.21"/></g></g><g class="cls-31"><g class="cls-9"><rect class="cls-20" x="51.97" y="5.28" width="11.68" height="20.21"/></g></g><g class="cls-32"><g class="cls-9"><rect class="cls-20" x="174.56" y="5.32" width="11.68" height="20.21"/></g></g><g class="cls-33"><rect class="cls-20" x="168.41" y="5.14" width="9.46" height="17.91"/></g><g class="cls-34"><g class="cls-9"><rect class="cls-20" x="166.5" y="14.35" width="11.36" height="11.35"/></g></g><g class="cls-35"><rect class="cls-20" x="39.08" y="11.18" width="13.57" height="9.51"/></g><g class="cls-36"><rect class="cls-20" x="38.31" y="5.24" width="9.46" height="20.3"/></g><g class="cls-37"><rect class="cls-20" x="45.64" y="5.24" width="9.46" height="20.3"/></g><g class="cls-38"><g class="cls-9"><rect class="cls-20" x="151.89" y="5.32" width="20.25" height="20.21"/></g></g><g class="cls-39"><g class="cls-9"><rect class="cls-4" width="30.62" height="30.54"/></g></g><g class="cls-40"><g class="cls-9"><rect class="cls-41" x="3.33" y="3.39" width="24.09" height="24.03"/></g></g><g class="cls-42"><rect class="cls-41" x="15.14" y="11.06" width="11.76" height="9.71"/></g></g></g></g></svg>