<svg id="Layer_1" data-name="Layer 1" xmlns="http://www.w3.org/2000/svg" xmlns:xlink="http://www.w3.org/1999/xlink" viewBox="0 0 264.88 97.03"><defs><style>.cls-1,.cls-2{fill:none;}.cls-2{clip-rule:evenodd;}.cls-3{clip-path:url(#clip-path);}.cls-4{fill:#221e1f;}.cls-5{clip-path:url(#clip-path-2);}.cls-6{clip-path:url(#clip-path-3);}.cls-7{clip-path:url(#clip-path-4);}.cls-8{isolation:isolate;}.cls-9{clip-path:url(#clip-path-5);}.cls-10{clip-path:url(#clip-path-6);}.cls-11{clip-path:url(#clip-path-7);}.cls-12{clip-path:url(#clip-path-8);}.cls-13{clip-path:url(#clip-path-9);}.cls-14{clip-path:url(#clip-path-10);}.cls-15{clip-path:url(#clip-path-12);}.cls-16{clip-path:url(#clip-path-14);}.cls-17{clip-path:url(#clip-path-15);}.cls-18{clip-path:url(#clip-path-17);}.cls-19{clip-path:url(#clip-path-19);}.cls-20{fill:#959595;}.cls-21{clip-path:url(#clip-path-20);}.cls-22{clip-path:url(#clip-path-21);}.cls-23{clip-path:url(#clip-path-22);}.cls-24{clip-path:url(#clip-path-24);}.cls-25{clip-path:url(#clip-path-26);}.cls-26{clip-path:url(#clip-path-28);}.cls-27{clip-path:url(#clip-path-30);}.cls-28{clip-path:url(#clip-path-32);}.cls-29{clip-path:url(#clip-path-34);}.cls-30{clip-path:url(#clip-path-36);}.cls-31{clip-path:url(#clip-path-38);}.cls-32{clip-path:url(#clip-path-40);}.cls-33{clip-path:url(#clip-path-42);}.cls-34{clip-path:url(#clip-path-43);}.cls-35{clip-path:url(#clip-path-45);}.cls-36{clip-path:url(#clip-path-46);}.cls-37{clip-path:url(#clip-path-47);}.cls-38{clip-path:url(#clip-path-48);}.cls-39{clip-path:url(#clip-path-50);}.cls-40{clip-path:url(#clip-path-52);}.cls-41{fill:#fff;}.cls-42{clip-path:url(#clip-path-54);}</style><clipPath id="clip-path" transform="translate(5 4.52)"><rect class="cls-1" x="202.46" y="32.48" width="1.54" height="23.05"/></clipPath><clipPath id="clip-path-2" transform="translate(5 4.52)"><path class="cls-2" d="M132.75,44.18a9.94,9.94,0,0,1-2.94,7.07,10.08,10.08,0,0,1-14.2,0,9.94,9.94,0,0,1,0-14.13,10.06,10.06,0,0,1,14.2,0L130.89,36a11.61,11.61,0,0,0-16.37,0,11.48,11.48,0,0,0,0,16.29,11.61,11.61,0,0,0,16.37,0,11.47,11.47,0,0,0,3.4-8.15Z"/></clipPath><clipPath id="clip-path-3" transform="translate(5 4.52)"><rect class="cls-1" x="-50" y="-33.65" width="1440" height="4449"/></clipPath><clipPath id="clip-path-4" transform="translate(5 4.52)"><rect class="cls-1" y="0.48" width="254.88" height="87.03"/></clipPath><clipPath id="clip-path-5" transform="translate(5 4.52)"><rect class="cls-1" y="0.35" width="255" height="88"/></clipPath><clipPath id="clip-path-6" transform="translate(5 4.52)"><rect class="cls-1" x="128.89" y="44.18" width="4.61" height="1.53"/></clipPath><clipPath id="clip-path-7" transform="translate(5 4.52)"><rect class="cls-1" x="144.16" y="44.18" width="4.63" height="1.53"/></clipPath><clipPath id="clip-path-8" transform="translate(5 4.52)"><rect class="cls-1" x="233.63" y="46.93" width="1.54" height="8.6"/></clipPath><clipPath id="clip-path-9" transform="translate(5 4.52)"><rect class="cls-1" x="203.39" y="32.48" width="6.03" height="1.53"/></clipPath><clipPath id="clip-path-10" transform="translate(5 4.52)"><polygon class="cls-2" points="186.09 53.99 186.09 32.48 184.55 32.48 184.55 53.99 184.55 55.52 186.09 55.52 190.54 55.52 190.54 53.99 186.09 53.99"/></clipPath><clipPath id="clip-path-12" transform="translate(5 4.52)"><polygon class="cls-2" points="168.17 53.99 168.17 32.48 166.64 32.48 166.64 53.99 166.64 55.52 168.17 55.52 172.62 55.52 172.62 53.99 168.17 53.99"/></clipPath><clipPath id="clip-path-14" transform="translate(5 4.52)"><rect class="cls-1" x="205.48" y="47.18" width="3.01" height="1.53"/></clipPath><clipPath id="clip-path-15" transform="translate(5 4.52)"><path class="cls-2" d="M208.49,32.48V34a6.59,6.59,0,1,1,0,13.17v1.53a8.12,8.12,0,1,0,0-16.23"/></clipPath><clipPath id="clip-path-17" transform="translate(5 4.52)"><polygon class="cls-2" points="218.93 55.52 210.59 47.22 209.51 48.3 216.76 55.52 218.93 55.52"/></clipPath><clipPath id="clip-path-19" transform="translate(5 4.52)"><rect class="cls-1" x="136.85" y="61.91" width="1.54" height="23.05"/></clipPath><clipPath id="clip-path-20" transform="translate(5 4.52)"><rect class="cls-1" x="136.85" y="61.91" width="6.03" height="1.53"/></clipPath><clipPath id="clip-path-21" transform="translate(5 4.52)"><rect class="cls-1" x="139.87" y="76.61" width="3.01" height="1.53"/></clipPath><clipPath id="clip-path-22" transform="translate(5 4.52)"><path class="cls-2" d="M142.88,61.91v1.53a6.59,6.59,0,1,1,0,13.17v1.53a8.12,8.12,0,1,0,0-16.23"/></clipPath><clipPath id="clip-path-24" transform="translate(5 4.52)"><polygon class="cls-2" points="153.32 84.96 144.98 76.66 143.9 77.74 151.15 84.96 153.32 84.96"/></clipPath><clipPath id="clip-path-26" transform="translate(5 4.52)"><polygon class="cls-2" points="242.04 32.48 234.4 45.66 226.75 32.48 224.98 32.48 233.51 47.18 234.39 48.7 234.39 48.71 234.4 48.7 234.4 48.71 234.4 48.7 235.28 47.18 243.81 32.48 242.04 32.48"/></clipPath><clipPath id="clip-path-28" transform="translate(5 4.52)"><polygon class="cls-2" points="154.13 43.26 155.91 43.26 150.87 34.58 149.99 33.06 149.98 33.05 149.98 33.06 149.98 33.05 149.97 33.06 149.09 34.58 136.94 55.52 138.72 55.52 149.98 36.1 154.13 43.26"/></clipPath><clipPath id="clip-path-30" transform="translate(5 4.52)"><path class="cls-2" d="M120.84,61.91h-6V85h1.54V63.44h4.49a6.59,6.59,0,1,1,0,13.17v1.53a8.12,8.12,0,1,0,0-16.23"/></clipPath><clipPath id="clip-path-32" transform="translate(5 4.52)"><polygon class="cls-2" points="124.58 1.93 119.81 1.93 118.28 1.93 113.51 1.93 113.51 3.46 118.28 3.46 118.28 25.16 119.81 25.16 119.81 3.46 124.58 3.46 124.58 1.93"/></clipPath><clipPath id="clip-path-34" transform="translate(5 4.52)"><polygon class="cls-2" points="254.88 62.2 250.11 62.2 248.57 62.2 243.8 62.2 243.8 63.73 248.57 63.73 248.57 85.43 250.11 85.43 250.11 63.73 254.88 63.73 254.88 62.2"/></clipPath><clipPath id="clip-path-36" transform="translate(5 4.52)"><path class="cls-2" d="M236.53,81a10.07,10.07,0,0,1-14.05-.15,9.94,9.94,0,0,1,0-14.13,10.08,10.08,0,0,1,14.2,0l1.08-1.08a11.61,11.61,0,0,0-16.37,0,11.49,11.49,0,0,0,0,16.3,11.62,11.62,0,0,0,16.22.14Z"/></clipPath><clipPath id="clip-path-38" transform="translate(5 4.52)"><polygon class="cls-2" points="167.94 3.55 167.94 2.02 163.5 2.02 161.96 2.02 161.96 3.55 161.96 23.54 161.96 25.07 163.5 25.07 167.94 25.07 167.94 23.54 163.5 23.54 163.5 15.07 167.94 15.07 167.94 13.55 163.5 13.55 163.5 3.55 167.94 3.55"/></clipPath><clipPath id="clip-path-40" transform="translate(5 4.52)"><polygon class="cls-2" points="209.9 63.44 209.9 61.91 205.45 61.91 203.91 61.91 203.91 63.44 203.91 83.43 203.91 84.96 205.45 84.96 209.9 84.96 209.9 83.43 205.45 83.43 205.45 74.96 209.9 74.96 209.9 73.43 205.45 73.43 205.45 63.44 209.9 63.44"/></clipPath><clipPath id="clip-path-42" transform="translate(5 4.52)"><rect class="cls-1" x="191.59" y="61.56" width="1.54" height="18.44"/></clipPath><clipPath id="clip-path-43" transform="translate(5 4.52)"><path class="cls-2" d="M191.58,80a3.8,3.8,0,0,1-3.81,3.79v1.52A5.33,5.33,0,0,0,193.11,80Z"/></clipPath><clipPath id="clip-path-45" transform="translate(5 4.52)"><rect class="cls-1" x="136.13" y="13.82" width="9.77" height="1.63"/></clipPath><clipPath id="clip-path-46" transform="translate(5 4.52)"><rect class="cls-1" x="134.59" y="1.93" width="1.54" height="23.23"/></clipPath><clipPath id="clip-path-47" transform="translate(5 4.52)"><rect class="cls-1" x="149.28" y="1.93" width="1.54" height="23.23"/></clipPath><clipPath id="clip-path-48" transform="translate(5 4.52)"><path class="cls-2" d="M163.54,65.86a10,10,0,1,1-3.5,7.57,9.89,9.89,0,0,1,2.42-6.49l-1.1-1.09a11.4,11.4,0,0,0-2.87,7.58,11.55,11.55,0,1,0,3.95-8.67Z"/></clipPath><clipPath id="clip-path-50" transform="translate(5 4.52)"><path class="cls-2" d="M87.45,44A43.73,43.73,0,1,1,43.72.48,43.63,43.63,0,0,1,87.45,44"/></clipPath><clipPath id="clip-path-52" transform="translate(5 4.52)"><path class="cls-2" d="M70.61,44.55a26.35,26.35,0,0,1-7.8,18.74,26.71,26.71,0,0,1-37.65,0,26.42,26.42,0,0,1,0-37.47,26.71,26.71,0,0,1,37.65,0L65.69,23h0a30.8,30.8,0,0,0-43.41,0,30.46,30.46,0,0,0,0,43.2,30.8,30.8,0,0,0,43.41,0,30.38,30.38,0,0,0,9-21.6Z"/></clipPath><clipPath id="clip-path-54" transform="translate(5 4.52)"><rect class="cls-1" x="60.38" y="44.55" width="12.22" height="4.05"/></clipPath></defs><g class="cls-3"><rect class="cls-4" x="202.46" y="31.99" width="11.54" height="33.05"/></g><g class="cls-5"><g class="cls-6"><rect class="cls-4" x="111.13" y="32.18" width="33.16" height="33.05"/></g></g><g class="cls-7"><g class="cls-8"><g class="cls-9"><g class="cls-10"><rect class="cls-4" x="128.89" y="43.7" width="14.61" height="11.53"/></g><g class="cls-11"><rect class="cls-4" x="144.16" y="43.7" width="14.63" height="11.53"/></g><g class="cls-12"><rect class="cls-4" x="233.63" y="46.44" width="11.54" height="18.6"/></g><g class="cls-13"><rect class="cls-4" x="203.39" y="31.99" width="16.03" height="11.53"/></g><g class="cls-14"><g class="cls-9"><rect class="cls-4" x="184.55" y="31.99" width="15.99" height="33.05"/></g></g><g class="cls-15"><g class="cls-9"><rect class="cls-4" x="166.64" y="31.99" width="15.99" height="33.05"/></g></g><g class="cls-16"><rect class="cls-4" x="205.48" y="46.7" width="13.01" height="11.53"/></g><g class="cls-17"><g class="cls-9"><rect class="cls-4" x="208.49" y="31.99" width="18.15" height="26.23"/></g></g><g class="cls-18"><g class="cls-9"><rect class="cls-4" x="209.51" y="46.74" width="19.42" height="18.3"/></g></g><g class="cls-19"><rect class="cls-20" x="136.85" y="61.43" width="11.54" height="33.05"/></g><g class="cls-21"><rect class="cls-20" x="136.85" y="61.43" width="16.03" height="11.53"/></g><g class="cls-22"><rect class="cls-20" x="139.87" y="76.13" width="13.01" height="11.53"/></g><g class="cls-23"><g class="cls-9"><rect class="cls-20" x="142.88" y="61.43" width="18.15" height="26.23"/></g></g><g class="cls-24"><g class="cls-9"><rect class="cls-20" x="143.9" y="76.18" width="19.42" height="18.3"/></g></g><g class="cls-25"><g class="cls-9"><rect class="cls-4" x="224.98" y="31.99" width="28.84" height="26.23"/></g></g><g class="cls-26"><g class="cls-9"><rect class="cls-4" x="136.94" y="32.57" width="28.96" height="32.47"/></g></g><g class="cls-27"><g class="cls-9"><rect class="cls-20" x="114.81" y="61.43" width="24.18" height="33.05"/></g></g><g class="cls-28"><g class="cls-9"><rect class="cls-20" x="113.51" y="1.45" width="21.08" height="33.23"/></g></g><g class="cls-29"><g class="cls-9"><rect class="cls-20" x="243.8" y="61.72" width="21.08" height="33.23"/></g></g><g class="cls-30"><g class="cls-9"><rect class="cls-20" x="218" y="61.81" width="29.76" height="33.04"/></g></g><g class="cls-31"><g class="cls-9"><rect class="cls-20" x="161.96" y="1.54" width="15.99" height="33.05"/></g></g><g class="cls-32"><g class="cls-9"><rect class="cls-20" x="203.91" y="61.43" width="15.99" height="33.05"/></g></g><g class="cls-33"><rect class="cls-20" x="191.59" y="61.07" width="11.54" height="28.44"/></g><g class="cls-34"><g class="cls-9"><rect class="cls-20" x="187.77" y="79.51" width="15.34" height="15.31"/></g></g><g class="cls-35"><rect class="cls-20" x="136.13" y="13.34" width="19.77" height="11.63"/></g><g class="cls-36"><rect class="cls-20" x="134.59" y="1.45" width="11.54" height="33.23"/></g><g class="cls-37"><rect class="cls-20" x="149.28" y="1.45" width="11.54" height="33.23"/></g><g class="cls-38"><g class="cls-9"><rect class="cls-20" x="158.49" y="61.43" width="33.16" height="33.05"/></g></g><g class="cls-39"><g class="cls-9"><rect class="cls-4" width="97.45" height="97.03"/></g></g><g class="cls-40"><g class="cls-9"><rect class="cls-41" x="13.29" y="13.52" width="71.39" height="71.09"/></g></g><g class="cls-42"><rect class="cls-41" x="60.38" y="44.07" width="22.22" height="14.05"/></g></g></g></g></svg>